<?xml version="1.0" encoding="UTF-8"?>
<svg width="512px" height="512px" viewBox="0 0 512 512" version="1.1" xmlns="http://www.w3.org/2000/svg"
     xmlns:xlink="http://www.w3.org/1999/xlink">
    <!-- Generator: Sketch 49.3 (51167) - http://www.bohemiancoding.com/sketch -->
    <title>icon-mask</title>
    <desc>Created with Sketch.</desc>
    <defs></defs>
    <g id="icon-mask" stroke="none" stroke-width="1" fill="none" fill-rule="evenodd">
        <g id="icon" fill="#FFFFFF" fill-rule="nonzero">
            <path d="M256,512 C114.615104,512 0,397.384896 0,256 C0,114.615104 114.615104,0 256,0 C397.384896,0 512,114.615104 512,256 C512,397.384896 397.384896,512 256,512 Z M342.502905,385.848333 C343.908577,385.848333 345.292623,385.295833 346.330658,384.266667 L357.143521,373.433333 C358.678948,371.884167 359.143901,369.576667 358.322123,367.550833 L261.006356,129.2175 C259.330362,125.144167 252.658825,125.144167 250.993644,129.2175 L153.677877,367.550833 C152.845286,369.576667 153.310239,371.884167 154.856479,373.433333 L165.669342,384.266667 C167.24802,385.8375 169.62685,386.281667 171.659668,385.393333 L256,348.43 L340.340332,385.393333 C341.032355,385.696667 341.76763,385.848333 342.502905,385.848333 Z"
                  id="Combined-Shape"></path>
        </g>
    </g>
</svg>